<?xml version="1.0" standalone="no"?>
<!DOCTYPE svg PUBLIC "-//W3C//DTD SVG 20010904//EN"
 "http://www.w3.org/TR/2001/REC-SVG-20010904/DTD/svg10.dtd">
<svg version="1.0" xmlns="http://www.w3.org/2000/svg"
 width="1024.000000pt" height="1024.000000pt" viewBox="0 0 1024.000000 1024.000000"
 preserveAspectRatio="xMidYMid meet">

<g transform="translate(0.000000,1024.000000) scale(0.100000,-0.100000)"
fill="#000000" stroke="none">
<path d="M4929 9188 c-812 -1335 -876 -1442 -1261 -2088 -344 -576 -589 -993
-586 -995 2 -1 55 1 119 3 l116 4 24 42 c35 62 886 1481 1131 1886 118 195
311 514 429 709 118 194 219 353 224 353 13 1 340 -535 1420 -2328 216 -358
394 -656 396 -662 2 -6 57 -14 133 -18 l130 -7 -21 34 c-12 19 -79 131 -151
249 -71 118 -232 386 -359 595 -126 209 -327 540 -445 735 -118 195 -257 425
-310 510 -52 85 -136 225 -188 310 -340 564 -600 990 -604 990 0 0 -89 -145
-197 -322z"/>
<path d="M4645 6104 c-760 -28 -1191 -62 -1695 -134 -612 -87 -915 -176 -1046
-305 -77 -77 -94 -174 -47 -273 28 -59 128 -157 231 -225 197 -131 351 -207
732 -362 187 -76 583 -227 838 -320 l102 -37 -19 -32 c-11 -17 -146 -242 -301
-501 -155 -258 -305 -507 -332 -552 -42 -70 -80 -110 -261 -279 -523 -488
-724 -719 -861 -989 -92 -183 -134 -336 -143 -520 -7 -165 6 -236 52 -282 48
-48 100 -47 157 4 86 78 192 227 330 463 328 562 668 1124 817 1351 96 146 96
146 515 560 304 301 413 403 398 373 -30 -60 -274 -498 -559 -1004 -332 -591
-634 -1133 -667 -1198 l-26 -52 -159 0 -159 0 -48 -92 c-27 -51 -50 -96 -52
-100 -2 -4 67 -9 152 -10 l156 -3 -71 -119 c-103 -173 -273 -489 -324 -603
-54 -120 -64 -172 -39 -197 48 -48 137 30 340 299 263 349 801 1114 810 1152
19 75 -72 85 -160 17 -25 -19 -46 -31 -46 -27 0 4 16 35 36 68 20 33 100 170
179 305 78 135 196 337 262 450 66 113 160 275 208 360 111 195 204 351 331
555 55 88 121 194 146 235 81 130 53 122 232 65 85 -28 156 -53 156 -57 0 -5
-4 -8 -9 -8 -4 0 -46 -22 -92 -48 -46 -27 -160 -93 -254 -146 -197 -112 -245
-155 -245 -215 0 -50 36 -96 88 -112 55 -17 716 -24 979 -10 189 10 568 41
856 71 l88 9 362 -124 c530 -181 1424 -506 2062 -750 210 -80 501 -191 670
-256 l100 -38 123 -198 c164 -263 282 -460 282 -467 0 -3 -1450 -7 -3222 -8
l-3221 -3 -52 -95 -52 -95 1729 -3 c950 -1 2506 -1 3458 0 l1729 3 -28 45
c-16 25 -94 151 -173 280 -80 129 -270 438 -423 685 -153 248 -333 540 -400
650 -281 460 -398 651 -409 666 -10 13 -22 10 -103 -26 l-91 -42 165 -274 c91
-151 239 -393 328 -539 163 -266 185 -304 185 -315 0 -3 -22 6 -50 20 -194 99
-804 351 -1375 570 -319 122 -714 267 -870 321 -61 20 -114 41 -119 46 -6 4
12 8 40 8 104 0 482 42 774 85 923 138 1458 384 1590 730 31 82 38 232 16 338
-37 180 -124 328 -290 493 -130 129 -228 200 -398 288 -624 324 -1620 470
-3273 480 -302 2 -590 2 -640 0z m505 -222 c0 -4 -4 -12 -9 -17 -5 -6 -116
-199 -246 -430 -399 -705 -527 -929 -540 -943 -10 -11 -35 -5 -136 29 -68 23
-128 45 -132 49 -5 4 16 50 46 102 198 342 307 557 314 618 5 43 3 51 -20 74
-15 15 -37 26 -52 26 -54 0 -89 -26 -355 -260 -91 -80 -217 -190 -280 -244
-63 -55 -125 -108 -136 -118 -21 -19 -24 -18 -255 65 -316 115 -520 193 -691
268 -382 165 -608 308 -608 383 0 150 834 305 2017 376 400 25 1083 38 1083
22z m1010 -37 c828 -58 1451 -176 1880 -357 342 -144 599 -332 737 -540 79
-118 97 -174 98 -293 0 -89 -3 -105 -27 -150 -94 -179 -386 -333 -833 -440
-387 -94 -975 -171 -1549 -205 l-169 -10 -306 100 c-168 54 -366 118 -438 141
-73 23 -133 45 -133 49 0 8 112 79 475 300 405 248 1006 620 1084 673 104 70
147 112 166 162 16 40 16 45 0 79 -36 76 -181 112 -356 87 -286 -41 -869 -233
-1621 -534 -159 -63 -288 -110 -288 -105 0 5 13 28 29 51 16 23 104 161 196
307 92 146 231 365 309 488 l141 224 195 -6 c107 -3 292 -13 410 -21z m310
-709 c0 -2 -28 -20 -63 -39 -64 -35 -319 -190 -1007 -615 -201 -124 -369 -225
-375 -225 -13 0 -407 122 -413 127 -5 6 57 108 72 118 16 11 383 156 576 228
341 128 882 315 1070 371 134 40 140 41 140 35z m-2531 -373 c-33 -59 -62
-109 -64 -111 -2 -2 -34 6 -70 18 -37 12 -63 26 -58 31 13 13 237 167 245 168
4 1 -20 -47 -53 -106z m68 -592 c-84 -80 -210 -203 -282 -273 -71 -70 -131
-128 -133 -128 -1 0 8 15 22 33 13 17 90 142 171 277 81 135 156 257 166 272
l19 26 94 -31 94 -31 -151 -145z m1435 -286 c161 -52 305 -97 321 -101 49 -11
28 -20 -55 -22 -206 -5 -907 -22 -938 -22 -30 0 -9 15 165 120 110 65 203 119
207 120 4 0 139 -43 300 -95z m-2757 -1232 c-10 -14 -27 -42 -38 -62 -75 -130
-260 -444 -317 -536 -37 -60 -93 -157 -125 -215 -109 -197 -170 -295 -173
-277 -6 29 17 152 44 239 54 173 176 383 332 572 61 75 281 306 290 306 2 0
-4 -12 -13 -27z"/>
<path d="M2159 4612 c-193 -323 -963 -1599 -1231 -2042 -101 -168 -274 -453
-383 -635 -109 -181 -203 -333 -209 -337 -6 -4 297 -8 674 -8 l685 0 23 87
c12 49 22 94 22 101 0 9 -111 12 -520 12 -286 0 -520 2 -520 4 0 2 37 64 81
138 226 370 407 668 549 903 86 143 183 303 215 355 138 225 966 1604 968
1612 2 7 -166 88 -182 88 -3 0 -81 -125 -172 -278z"/>
</g>
</svg>
